inDegrees=yes
name=ik_lifting_orientations
DataType=double
version=3
OpenSimVersion=4.5-2024-01-10-34fd6af
endheader
time	pelvis_tilt	pelvis_list	pelvis_rotation	pelvis_tx	pelvis_ty	pelvis_tz	hip_flexion_r	hip_adduction_r	hip_rotation_r	knee_angle_r	knee_angle_r_beta	ankle_angle_r	subtalar_angle_r	mtp_angle_r	hip_flexion_l	hip_adduction_l	hip_rotation_l	knee_angle_l	knee_angle_l_beta	ankle_angle_l	subtalar_angle_l	mtp_angle_l	lumbar_extension	lumbar_bending	lumbar_rotation	arm_flex_r	arm_add_r	arm_rot_r	elbow_flex_r	pro_sup_r	wrist_flex_r	wrist_dev_r	arm_flex_l	arm_add_l	arm_rot_l	elbow_flex_l	pro_sup_l	wrist_flex_l	wrist_dev_l
0.02	-0.006512784170852145	-0.009397279080315452	-4.729397360810049	0	0.9399999999999999	0	44.45740917397774	-10.20514295564167	0	60.06346117138474	1.048305157584434	-5.069434786682032	0	0	44.45740917397774	-10.20514295564167	0	60.06346117138474	1.048305157584434	-5.069434786682032	0	0	0.01533049244783329	0.004295493892134787	-0.0003121131860045044	-0.4582102715162881	-0.09256843662264548	-0.01389060299969141	0.9182692009244249	44.58007702303025	0	0	0	-12.24052241534089	0	76.35790355668277	44.58007702303025	0	0
0.03	0.003961734591063745	-0.000128282230572131	-4.730684112929679	0	0.9399999999999999	0	44.47349553071071	-10.18652180746116	0	60.06196987262827	1.048279129511003	-5.061638299812215	0	0	44.47349553071071	-10.18652180746116	0	60.06196987262827	1.048279129511003	-5.061638299812215	0	0	-0.01026257117766984	-0.001447210812119245	-0.0005491569666427024	-0.2320305581332745	-0.05427154117644844	-0.008859756974454706	0.4826150229121178	44.61138906361162	0	0	0	-12.28351483843984	0	76.31764159331117	44.61138906361162	0	0
0.04	2.045031277486433e-05	-0.0002721661638425161	-4.732779554060168	0	0.9399999999999999	0	44.51143543789911	-10.14791963793582	0	60.05842108794485	1.048217191533833	-5.046201608107738	0	0	44.51143543789911	-10.14791963793582	0	60.05842108794485	1.048217191533833	-5.046201608107738	0	0	-0.0001284220258373215	0.0007107534856716669	-0.0003767783416174078	-0.2372982584816914	-0.05576641657807981	-0.005271944187460522	0.4876875304074813	44.67857038638589	0	0	0	-12.3879327696038	0	76.22268706263004	44.67857038638589	0	0
0.05	-0.00281845719277897	-0.01240396470364209	-4.727667581457363	0	0.9399999999999999	0	44.54610148606744	-10.11781004205153	0	60.05512688732325	1.048159696886764	-5.034825703162932	0	0	44.54610148606744	-10.11781004205153	0	60.05512688732325	1.048159696886764	-5.034825703162932	0	0	0.008954361771660087	0.006137307902886224	-0.001174430903846707	-0.2488978821596096	-0.04164241988564722	-0.01195401370606552	0.4919431881449193	44.73323980774644	0	0	0	-12.48681863317034	0	76.1359298552314	44.73323980774644	0	0
0.06	0.0004675899635971719	-6.763380411114211e-05	-4.731900035775736	0	0.9399999999999999	0	44.56605818150448	-10.10371250279086	0	60.05319163772483	1.048125920409424	-5.029887759861458	0	0	44.56605818150448	-10.10371250279086	0	60.05319163772483	1.048125920409424	-5.029887759861458	0	0	-0.001332804422133511	0.001475369469872635	-0.001222579791495933	-0.2365410092368272	-0.05702045095371372	-0.005869392800013594	0.4882944070346465	44.76031023150166	0	0	0	-12.54641754870105	0	76.0859874523143	44.76031023150166	0	0
0.07000000000000001	-0.002127848418150507	-0.02120627388264585	-4.736299905692881	0	0.9399999999999999	0	44.60015292601626	-10.08020106691828	0	60.04987306370628	1.048068000366329	-5.021674953682637	0	0	44.60015292601626	-10.08020106691828	0	60.04987306370628	1.048068000366329	-5.021674953682637	0	0	0.01067639282713038	0.008411807110014909	5.921539572521233e-05	-0.2513777380849385	-0.0361171324087076	-0.0009796131299650752	0.4897674903450927	44.80564201340349	0	0	0	-12.64913467657636	0	76.00066447243729	44.80564201340349	0	0
0.08	0.002771696680184316	5.81483003240244e-05	-4.732888930159275	0	0.9399999999999999	0	44.61361260970987	-10.07220958467009	0	60.04854358287221	1.048044796548433	-5.019032439678505	0	0	44.61361260970987	-10.07220958467009	0	60.04854358287221	1.048044796548433	-5.019032439678505	0	0	-0.005864014041813809	-0.0008085189607910956	-0.0002937902615666438	-0.2342634080114977	-0.05518180414400403	-0.005562361541674825	0.4885596806457865	44.82168759076155	0	0	0	-12.69105671800887	0	75.96698217834421	44.82168759076155	0	0
0.09	0.003395064852387614	-0.000869968574249033	-4.732816625748721	0	0.9399999999999999	0	44.63682618279807	-10.05997169949531	0	60.04622326884788	1.048004299429028	-5.015154928502531	0	0	44.63682618279807	-10.05997169949531	0	60.04622326884788	1.048004299429028	-5.015154928502531	0	0	-0.006709133186957557	0.0006964228949003467	-0.001755631620689411	-0.2344716125656134	-0.05542560545315794	-0.004321835507849371	0.4886770857174457	44.84705418548142	0	0	0	-12.76533325993526	0	75.90889228524459	44.84705418548142	0	0
0.1	0.00369886973278152	0.001000955624794288	-4.732794170153035	0	0.9399999999999999	0	44.65516298181544	-10.05154943764489	0	60.04436421362635	1.047971852794436	-5.012609762971334	0	0	44.65516298181544	-10.05154943764489	0	60.04436421362635	1.047971852794436	-5.012609762971334	0	0	-0.007053749113355039	-0.0006936170812352521	-0.0002410946717196168	-0.2341520504153904	-0.056388947129848	-0.00592737169394309	0.4885216503745878	44.86515349868483	0	0	0	-12.82593152580013	0	75.86300700260273	44.86515349868483	0	0
0.11	0.001687896272829188	-0.0008679936250849256	-4.734553936068186	0	0.9399999999999999	0	44.68171987871364	-10.04006022371034	0	60.0416534413441	1.047924540892839	-5.009199627076473	0	0	44.68171987871364	-10.04006022371034	0	60.0416534413441	1.047924540892839	-5.009199627076473	0	0	-0.003679167231994022	-0.003053561058813478	-0.0007522225124561324	-0.2927940276197172	-0.06526558449432543	-0.008126055634510389	0.6066764200996946	44.89020690236295	0	0	0	-12.91507284695851	0	75.79655259883013	44.89020690236295	0	0
0.12	0.001016657494922886	-0.0006706840438361989	-4.731515944218913	0	0.9399999999999999	0	44.69368711552907	-10.0353345644583	0	60.04042071399176	1.047903025741761	-5.007844901945814	0	0	44.69368711552907	-10.0353345644583	0	60.04042071399176	1.047903025741761	-5.007844901945814	0	0	-0.000196633759245739	0.0001856205329537406	-0.001352811859464254	-0.2371564367826499	-0.05445351427912014	-0.006397265827797675	0.487326480763011	44.90077507874099	0	0	0	-12.95603465601476	0	75.76660677652634	44.90077507874099	0	0
0.13	0.0001015561075638873	0.007028861620313558	-4.734122975235899	0	0.9399999999999999	0	44.71419656809623	-10.02857119358473	0	60.03827146755189	1.047865514314948	-5.006030835316065	0	0	44.71419656809623	-10.02857119358473	0	60.03827146755189	1.047865514314948	-5.006030835316065	0	0	-0.001554765894626456	0.002253642068678836	-0.0003701841681712919	-0.2829882943024759	-0.07181004961956571	-0.007234254440240688	0.5797330189797073	44.91665948887189	0	0	0	-13.02909612942977	0	75.71528660924261	44.91665948887189	0	0
0.14	-0.004253821256726322	0.015398956834639	-4.730119293104624	0	0.9399999999999999	0	44.72554071341548	-10.02504617804689	0	60.03707540615964	1.047844639105598	-5.005105217778287	0	0	44.72554071341548	-10.02504617804689	0	60.03707540615964	1.047844639105598	-5.005105217778287	0	0	-0.000751737556156196	-0.008715885000710662	0.0006922029460010446	-0.2298890948732726	-0.07160261617832514	-0.007887037518244466	0.4922287894846489	44.92507085791232	0	0	0	-13.07005639967782	0	75.68690064247822	44.92507085791232	0	0
0.15	-0.0162932133748267	-0.01717139810534754	-4.737380583168451	0	0.9399999999999999	0	44.73443095583468	-10.02268048199599	0	60.03612383290351	1.047828031019204	-5.004518691605941	0	0	44.73443095583468	-10.02268048199599	0	60.03612383290351	1.047828031019204	-5.004518691605941	0	0	0.03671431795480096	0.01121492324861496	0.0009573864470076302	-0.485246761654583	-0.09243655395713005	-0.005104592900465963	0.9457094127308204	44.93095936811559	0	0	0	-13.10327501604689	0	75.66465527205413	44.93095936811559	0	0
0.16	-0.007029011384454022	0.009134269967580272	-4.731349212301533	0	0.9399999999999999	0	44.74699947908307	-10.01953645972565	0	60.03477012136321	1.047804404295704	-5.003755791743086	0	0	44.74699947908307	-10.01953645972565	0	60.03477012136321	1.047804404295704	-5.003755791743086	0	0	0.02593921554231851	-0.005198535570698305	-0.00506383334769119	-0.4576630397245691	-0.1060121362476454	-0.006468998088742228	0.9064657214705016	44.93891366247836	0	0	0	-13.15092136157033	0	75.63320616774028	44.93891366247836	0	0
